<?xml version="1.0" encoding="utf-8"?>
<!-- Generator: Adobe Illustrator 18.1.0, SVG Export Plug-In . SVG Version: 6.00 Build 0)  -->
<svg version="1.1" xmlns="http://www.w3.org/2000/svg" xmlns:xlink="http://www.w3.org/1999/xlink" x="0px" y="0px"
	 viewBox="0 0 79.2 85.5" enable-background="new 0 0 79.2 85.5" xml:space="preserve">
<g id="initial_sketch">
	<g id="Layer_1">
	</g>
</g>
<g id="sketch-copy" opacity="0.32">
</g>
<g id="hi-fi" opacity="0.47">
</g>
<g id="higher-fi">
</g>
<g id="bison_prototype">
</g>
<g id="Variations">
</g>
<g id="BisonLogo">
	<path id="Horn" fill="#FFFFFF" d="M29.4,39.3l-6.1-2l-3.8-4.9V26c0,0,1.7-8.2,5.6-9.7c0.2-0.1-5,12.7,6.3,14.9
		C32.6,36.8,29.4,39.3,29.4,39.3z"/>
	<path id="Shield" fill="#FFFFFF" d="M77.2,0H2C0.9,0,0,0.9,0,2v61.5c0,0.7,0.4,1.4,1.1,1.8l37.6,20c0.3,0.2,0.6,0.2,0.9,0.2
		s0.6-0.1,0.9-0.2l37.6-20c0.7-0.3,1.1-1,1.1-1.8V2C79.2,0.9,78.3,0,77.2,0z M4,62.3V4h16.1l6.1,11.2h20.2l9,6L58,33.6v19l-5.8,10.1
		l-13.3,5.1L23.5,52.5v-6.8h-4v8.5l9.5,9.5l-10.8,6.3L4,62.3z M75.2,62.3l-35.6,19l-17.2-9.2l9.6-5.6l6,5.9L55,66l7-12.3V33.4
		l-3-14.6l-11.3-7.6H28.6L24.7,4h50.5V62.3z"/>
</g>
</svg>
