<?xml version="1.0" encoding="utf-8"?>
<!-- Generator: Adobe Illustrator 18.1.0, SVG Export Plug-In . SVG Version: 6.00 Build 0)  -->
<svg version="1.1" xmlns="http://www.w3.org/2000/svg" xmlns:xlink="http://www.w3.org/1999/xlink" x="0px" y="0px"
	 viewBox="0 0 190.8 124.9" enable-background="new 0 0 190.8 124.9" xml:space="preserve">
<g id="initial_sketch">
	<g id="Layer_1">
	</g>
</g>
<g id="sketch-copy" opacity="0.32">
</g>
<g id="hi-fi" opacity="0.47">
</g>
<g id="higher-fi">
</g>
<g id="bison_prototype">
	<g>
		<path fill="none" stroke="#27B9CC" stroke-width="3" stroke-miterlimit="10" d="M19.8,25.3"/>
	</g>
</g>
<g id="BisonLargeLogo">
	<path id="Body" fill="#FFFFFF" d="M187.8,29.8l-11.3-7.6h-19.1l-8.3-15.4L124.2,0L75.4,18.1l-27.4-1l-24.3,5.3
		c-3.9,0.2-7.4,1.7-10.2,4l-9.1,4.9L0,38.1L5.8,65L4.9,77.1l10.7-4.7l-6-4.3l0.2-3.3L4.3,38.8l3-4.6l1.1-0.6
		c-0.7,1.9-1.1,3.9-1.1,6.1c0,2.8,1.4,7.3,1.6,7.8L16.6,75l-7.7,9L3.4,111l4.8,13.9h16.3l-8.4-22.5l9.1-10.6l-0.1,10.8l15.2,22.3
		h17.8l-16-17.5L40.8,99l3.1-8.7L46,74.8l12.5,10.1l21.9,1.5l11-4.5l6.4,4.6L90,98.6l9,26.3h20.9l-11.9-12.4l7-13.6l18.3,13.1
		l1,12.9h18.1L141.9,104L140.6,89L161,77.7l5.8,5.7l17-6.5l7-12.3V44.3L187.8,29.8z M11.6,101.5l7.2,19.4h-7.7l-3.6-10.2l5-25
		l6.1-7.1l6,7.6L11.6,101.5z M103.2,113.2l7.4,7.7h-8.6l-7.5-21.8l6.6-10.3l10.7,7.7L103.2,113.2z M186.8,63.6L181,73.7l-13.3,5.1
		l-15.4-15.3v-6.8h-4v8.5l9.7,9.7l-18.9,10.4l-7.1-10.8l-3.3,2.2l7.8,12l1.4,16.6l8,15.7H138l-0.8-11.1L93.4,78.4l-7-25l6.6-21.5
		l-3.8-1.2l-6.9,22.7l7,25.1l-9.5,3.9L60,81L43,67.2l-2.9,22l-3.3,9.5l1.6,10.6L49,120.9h-6.6l-13.3-19.6l0.1-15.7l-8.6-11.1
		l-8-28.2c-0.4-1.2-1.4-4.8-1.4-6.6c0-5.5,3.4-10.3,8.1-12.3l5.6-1.1l0-0.1l23.4-5.1l27.7,1l48.3-17.9l22,6l8.6,15.9h20.2l9,6
		l2.6,12.4V63.6z"/>
	<g id="Horn_1_">
		<path fill="#FFFFFF" d="M158.2,50.3l-6.1-2l-3.8-4.9v-6.4c0,0,1.7-8.2,5.6-9.7c0.2-0.1-5,12.7,6.3,14.9
			C161.4,47.8,158.2,50.3,158.2,50.3z"/>
	</g>
</g>
<g id="Variations">
</g>
<g id="BisonLogo">
</g>
</svg>
