<?xml version="1.0" encoding="UTF-8" standalone="no"?>
<svg width="180px" height="180px" viewBox="0 0 180 180" version="1.1" xmlns="http://www.w3.org/2000/svg" xmlns:xlink="http://www.w3.org/1999/xlink">
    <defs></defs>
    <g id="Files" stroke="none" stroke-width="1" fill="none" fill-rule="evenodd">
        <g id="Cog" transform="translate(-41.000000, -35.000000)" fill="#D3D3D3">
            <path d="M97.246207,182.304868 C97.5427312,182.304868 97.8299004,182.379816 98.0746434,182.522583 C103.180478,185.467037 108.509936,187.72137 113.909026,189.216106 C114.464365,189.374399 114.91261,189.841644 115.070418,190.447112 L120.713101,213.018199 L121.040092,214.326162 L122.388309,214.325189 L139.825927,214.312613 L141.17305,214.311641 L141.49892,213.004526 L147.133289,190.404165 C147.278175,189.830823 147.718109,189.375572 148.290034,189.212604 C153.752209,187.683214 159.068987,185.429627 164.107059,182.512849 C164.629566,182.20554 165.257595,182.212221 165.787129,182.527419 L185.922797,194.622667 L187.079489,195.317476 L188.032639,194.362384 L200.376686,181.993183 L201.32838,181.03955 L200.633995,179.885009 L188.535193,159.76855 C188.222,159.252673 188.216865,158.605662 188.521283,158.066588 C191.372962,153.122963 193.568766,147.841033 195.0607,142.331858 C195.218385,141.750587 195.673452,141.303994 196.255721,141.159959 L219.031213,135.448798 L220.337008,135.121357 L220.337008,133.775134 L220.337008,116.350092 L220.337008,115.003147 L219.030343,114.67621 L196.260197,108.978958 C195.676846,108.83389 195.217493,108.383929 195.060503,107.80522 C193.579894,102.335372 191.376673,97.0297548 188.515042,92.04768 C188.221723,91.5343633 188.22862,90.8843314 188.539238,90.3624928 L200.609903,70.2384503 L201.302782,69.0832909 L200.350292,68.1308008 L188.018821,55.7993298 L187.06615,54.8466593 L185.910899,55.539882 L165.769287,67.626107 C165.248249,67.9461506 164.629919,67.9519063 164.103673,67.6428896 C159.030476,64.7262047 153.71519,62.476494 148.270868,60.9484886 C147.700394,60.7920359 147.266869,60.3434176 147.120439,59.757695 L141.473602,37.145196 L141.147108,35.8377666 L139.799529,35.8377666 L122.361911,35.8377666 L121.014605,35.8377666 L120.68792,37.1448668 L115.003244,59.8898595 C114.858364,60.4693814 114.405051,60.9330161 113.829615,61.0891184 C108.348883,62.5721396 103.041965,64.7780761 98.0469217,67.6471566 C97.5192092,67.9610288 96.9038888,67.9544828 96.3796313,67.6337606 L76.2506767,55.5525404 L75.0947731,54.8587814 L74.1419976,55.8125286 L61.8105266,68.1565763 L60.8584808,69.109593 L61.5520272,70.26442 L73.6256756,90.3683021 C73.9389953,90.8843968 73.9423847,91.5249901 73.6351697,92.057914 C70.7031589,97.1612993 68.4454403,102.489905 66.9344204,107.906527 C66.7719738,108.482729 66.3195727,108.919966 65.7317834,109.066913 L43.144877,114.701063 L41.8370083,115.027302 L41.8370083,116.375246 L41.8370083,133.812864 L41.8370083,135.159448 L43.1432375,135.486637 L65.8882302,141.18389 C66.4720168,141.329067 66.93137,141.779028 67.0883602,142.357737 C68.5849357,147.875546 70.7907343,153.178883 73.6623228,158.133655 C73.9630197,158.655282 73.9562393,159.296026 73.6425529,159.812686 L61.5648494,179.910705 L60.8707861,181.065669 L61.8231039,182.018957 L74.1671517,194.375582 L75.1203784,195.32978 L76.2765099,194.635161 L96.3929687,182.548936 C96.6612017,182.386757 96.9548982,182.304868 97.246207,182.304868 L97.246207,182.304868 L97.246207,182.304868 Z M97.246207,178.853904 C96.3254348,178.853904 95.4142615,179.107958 94.6115339,179.593328 L74.4992359,191.677045 L76.6085941,191.936624 L64.2645464,179.58 L64.5228009,181.688253 L76.5964492,161.596947 C77.5601783,160.009663 77.5812127,158.02191 76.6500841,156.406687 C73.9274334,151.708889 71.8373144,146.683677 70.4189703,141.454304 C69.9344188,139.668114 68.5195493,138.282173 66.7238892,137.835633 L43.9817435,132.139091 L45.2879727,133.812864 L45.2879727,116.375246 L43.980104,118.049429 L66.5678878,112.415059 C68.3545186,111.968402 69.7568836,110.613044 70.2571946,108.838355 C71.6910066,103.698528 73.8363218,98.6352141 76.6261903,93.7792345 C77.5571245,92.1643523 77.5466084,90.1768108 76.5798174,88.584449 L64.5104696,68.4876889 L64.2519703,70.5955325 L76.5834413,58.2514848 L74.4747622,58.511473 L94.591221,70.5851213 C96.1903953,71.5635122 98.1784718,71.5846619 99.78889,70.6260797 C104.505093,67.9174013 109.537419,65.8256049 114.732058,64.4199968 C116.51646,63.9359306 117.903574,62.5172316 118.351198,60.7267324 L124.035902,37.9816308 L122.361911,39.2887309 L139.799529,39.2887309 L138.125456,37.9813015 L143.772402,60.5942387 C144.219426,62.3823359 145.578287,63.7885069 147.348334,64.2738425 C152.504421,65.7209839 157.555614,67.8589166 162.369958,70.6267019 C163.981869,71.573316 165.96708,71.5548366 167.560441,70.5757841 L187.686542,58.498978 L185.57862,58.2395301 L197.910091,70.5710011 L197.65048,68.4633517 L185.576832,88.5923872 C184.628188,90.1860907 184.607196,92.1645822 185.520675,93.7631708 C188.237175,98.4925821 190.326388,103.523653 191.729666,108.707814 C192.214444,110.494842 193.629314,111.880783 195.424974,112.327323 L218.192709,118.023974 L216.886044,116.350092 L216.886044,133.775134 L218.191839,132.10147 L195.421693,137.811299 C193.626209,138.255436 192.215202,139.640167 191.729914,141.429073 C190.315737,146.651121 188.234822,151.656688 185.52416,156.355984 C184.603111,157.986864 184.618831,159.967579 185.581623,161.553354 L197.676695,181.663641 L197.934004,179.555468 L185.589956,191.924669 L187.699797,191.664386 L167.558185,179.565584 C165.949547,178.608045 163.974657,178.587036 162.367675,179.532319 C157.58894,182.298908 152.540174,184.438894 147.351944,185.891599 C145.585851,186.394821 144.233307,187.794456 143.786152,189.564048 L138.150445,212.169736 L139.823438,210.861649 L122.38582,210.874226 L124.061028,212.181217 L118.414082,189.593433 C117.946911,187.800679 116.597275,186.393833 114.842255,185.893747 C109.715677,184.474405 104.655487,182.333971 99.8060527,179.537403 C99.0316885,179.085665 98.1436767,178.853904 97.246207,178.853904 L97.246207,178.853904 L97.246207,178.853904 Z M130.638792,150.748815 C116.244739,150.748815 104.529527,139.046179 104.529527,124.63955 C104.529527,110.232921 116.244739,98.5302857 130.638792,98.5302857 C145.020268,98.5302857 156.722903,110.232921 156.722903,124.63955 C156.722903,139.046179 145.020268,150.748815 130.638792,150.748815 L130.638792,150.748815 Z M130.641312,101.414138 C117.831542,101.414138 107.422189,111.838589 107.422189,124.633262 C107.422189,137.427935 117.831542,147.852385 130.641312,147.852385 C143.420888,147.852385 153.830242,137.427935 153.830242,124.633262 C153.830242,111.838589 143.420888,101.414138 130.641312,101.414138 L130.641312,101.414138 Z" id="Shape"></path>
        </g>
    </g>
</svg>