<?xml version="1.0" encoding="UTF-8" standalone="no"?>
<svg width="186px" height="186px" viewBox="0 0 186 186" version="1.1" xmlns="http://www.w3.org/2000/svg" xmlns:xlink="http://www.w3.org/1999/xlink">
    <defs></defs>
    <g id="Files" stroke="none" stroke-width="1" fill="none" fill-rule="evenodd">
        <g id="Money" transform="translate(-55.000000, -32.000000)" fill="#D3D3D3">
            <path d="M148.454829,32.9676 C97.4512818,32.9676 55.9669431,74.4614903 55.9669431,125.4676 C55.9669431,176.471636 97.4552655,217.9676 148.454829,217.9676 C199.473052,217.9676 240.979057,176.471147 240.979057,125.4676 C240.979057,74.464053 199.473052,32.9676 148.454829,32.9676 L148.454829,32.9676 Z M148.454829,36.3325579 C197.61481,36.3325579 237.614099,76.3226413 237.614099,125.4676 C237.614099,174.612559 197.61481,214.602642 148.454829,214.602642 C99.3138192,214.602642 59.331901,174.61336 59.331901,125.4676 C59.331901,76.3197318 99.3098701,36.3325579 148.454829,36.3325579 L148.454829,36.3325579 Z M170.264692,106.601403 C172.063598,106.601403 173.529374,105.135627 173.529374,103.336721 C173.529374,89.4603074 162.221096,78.1641439 148.332569,78.1641439 C134.444042,78.1641439 123.159992,89.4603074 123.159992,103.336721 C123.159992,116.09866 132.742046,126.571082 145.080001,128.194338 L145.080001,165.420194 C136.370144,163.869621 129.725698,156.286352 129.725698,147.140396 C129.725698,145.34149 128.272036,143.875714 126.47313,143.875714 C124.674223,143.875714 123.208448,145.34149 123.208448,147.140396 C123.208448,160.992582 134.492497,172.264518 148.332569,172.264518 C162.196869,172.264518 173.468804,160.992582 173.468804,147.140396 C173.468804,134.396628 163.898864,123.954491 151.597251,122.331235 L151.597251,85.0084682 C160.34345,86.5590408 167.012123,94.1544237 167.012123,103.336721 C167.012123,105.135627 168.477899,106.601403 170.264692,106.601403 L170.264692,106.601403 Z M129.677243,103.336721 C129.677243,94.1544237 136.351973,86.5590408 145.080001,85.0145251 L145.080001,121.677087 C136.351973,120.120458 129.677243,112.519018 129.677243,103.336721 L129.677243,103.336721 Z M166.963668,147.140396 C166.963668,156.286352 160.313165,163.869621 151.597251,165.420194 L151.597251,128.854542 C160.319222,130.405115 166.963668,138.000498 166.963668,147.140396 L166.963668,147.140396 Z" id="Shape"></path>
        </g>
    </g>
</svg>