<?xml version="1.0" encoding="UTF-8" standalone="no"?>
<svg width="143px" height="193px" viewBox="0 0 143 193" version="1.1" xmlns="http://www.w3.org/2000/svg" xmlns:xlink="http://www.w3.org/1999/xlink">
    <defs></defs>
    <g id="Files" stroke="none" stroke-width="1" fill="none" fill-rule="evenodd">
        <g id="WebFile" transform="translate(-54.000000, -29.000000)" fill="#D3D3D3">
            <path d="M63.4933542,32 L155.5,32 L194,70.5 L194,212.501613 C194,216.09033 191.088161,219 187.495636,219 L63.5043643,219 C59.9131141,219 57,216.088543 57,212.502593 L57,38.4974072 C57,34.9124821 59.9134688,32 63.4933542,32 L63.4933542,32 L63.4933542,32 Z M63.5043643,222 L187.495636,222 C192.744515,222 197,217.747685 197,212.501613 L197,70.5 L197,69.8786797 L196.56066,69.4393398 L156.56066,29.4393398 L156.12132,29 L155.5,29 L63.4933542,29 C58.256842,29 54,33.2554003 54,38.4974072 L54,212.502593 C54,217.74578 58.256642,222 63.5043643,222 L63.5043643,222 Z M106.303418,117.585012 L83.1304036,126.337084 L106.303418,135.007105 L106.303418,140.012196 L77.4870931,128.579802 L77.4870931,124.039665 L106.303418,112.607272 L106.303418,117.585012 L106.303418,117.585012 Z M132.938753,103.034694 L138.118604,103.034694 L116.690381,149.06512 L111.483268,149.06512 L132.938753,103.034694 L132.938753,103.034694 Z M144.716097,117.585012 L144.716097,112.607272 L173.532422,124.039665 L173.532422,128.579802 L144.716097,140.012196 L144.716097,135.007105 L167.889111,126.337084 L144.716097,117.585012 L144.716097,117.585012 Z M189,69 L163.49846,69.0000002 C159.911901,69.0000002 157,66.08908 157,62.5015403 L157,37.0000002 L154,34 L154,62.5015403 C154,67.7461606 158.255273,72.0000002 163.49846,72.0000002 L192,72 L189,69 L189,69 Z" id="Shape"></path>
        </g>
    </g>
</svg>